#!OML:ASF H:\Terrain\Patient Classification 1\Terrain2\Thursday\justin.ASF
:FULLY-SPECIFIED
:DEGREES
973
root 8.84009 17.8839 31.3532 5.98155 -57.2147 -7.24827
lowerback 3.05715 -0.904307 2.52386
upperback 0.710133 -1.12242 2.65215
thorax -0.980024 -0.576332 1.34897
lowerneck -13.7833 -6.53126 -11.4485
upperneck 30.7812 -8.79045 5.59015
head 13.4576 -4.68254 2.70938
rclavicle 2.12203e-013 -2.70347e-014
rhumerus -26.4471 -12.1633 -78.8537
rradius 28.4021
rwrist -11.5633
rhand -21.351 10.405
rfingers 7.12502
rthumb 5.03543 -19.5152
lclavicle 2.12203e-013 -2.70347e-014
lhumerus -37.6962 14.9172 79.1468
lradius 20.3376
lwrist -9.12242
lhand -17.1002 21.1031
lfingers 7.12502
lthumb 9.13862 50.8851
rfemur -7.98714 16.7482 23.4824
rtibia 29.6253
rfoot -14.6121 25.7004
rtoes 21.6415
lfemur -10.5634 -8.27551 -10.1808
ltibia 27.1065
lfoot -7.70265 -24.5498
ltoes 28.0704
974
root 8.86587 17.8897 31.3863 6.12766 -57.7834 -7.35858
lowerback 3.25789 -1.06564 2.36378
upperback 0.667508 -1.33266 2.78982
thorax -1.12825 -0.682626 1.59336
lowerneck -13.788 -6.40076 -11.288
upperneck 30.7124 -8.57347 5.38088
head 13.3845 -4.5971 2.63609
rclavicle -5.64051e-015 -8.74653e-015
rhumerus -26.5348 -12.1731 -78.6016
rradius 28.5217
rwrist -11.8833
rhand -21.3292 10.3897
rfingers 7.12502
rthumb 5.05648 -19.53
lclavicle -5.64051e-015 -8.74653e-015
lhumerus -37.4988 14.6041 79.0559
lradius 20.936
lwrist -8.54426
lhand -17.3039 21.3545
lfingers 7.12502
lthumb 8.94206 51.145
rfemur -8.0094 16.1605 23.5703
rtibia 29.6902
rfoot -15.5007 24.1889
rtoes 17.9463
lfemur -10.5652 -7.94065 -10.2938
ltibia 27.2843
lfoot -7.91207 -24.6137
ltoes 28.3708
975
root 8.88638 17.8918 31.4133 7.95109 -58.502 -9.38032
lowerback 3.36086 -1.04197 3.10965
upperback 0.664179 -1.27441 3.22052
thorax -1.19592 -0.660101 1.61949
lowerneck -13.7439 -6.34538 -11.3207
upperneck 30.5717 -8.47739 5.37048
head 13.3061 -4.56 2.65398
rclavicle -2.51214e-014 -3.26007e-014
rhumerus -26.7099 -12.1548 -78.2955
rradius 28.8222
rwrist -12.5859
rhand -21.507 10.4821
rfingers 7.12502
rthumb 4.88482 -19.4416
lclavicle -2.51214e-014 -3.26007e-014
lhumerus -37.0992 13.7682 79.2799
lradius 21.5457
lwrist -7.48608
lhand -17.404 21.5771
lfingers 7.12502
lthumb 8.84549 51.3717
rfemur -8.09512 15.8682 24.7812
rtibia 29.8401
rfoot -16.7962 22.1258
rtoes 12.2492
lfemur -10.5263 -7.40814 -9.24995
ltibia 27.3782
lfoot -7.99699 -24.7638
ltoes 28.2107
976
root 8.91161 17.8989 31.4429 9.14757 -59.2147 -10.4541
lowerback 3.31761 -0.967326 3.48267
upperback 0.628528 -1.16518 3.42291
thorax -1.21185 -0.60911 1.61444
lowerneck -13.6928 -6.35486 -11.3064
upperneck 30.4062 -8.50869 5.42278
head 13.23 -4.56442 2.66701
rclavicle -9.34288e-015 -8.74653e-015
rhumerus -26.9057 -12.5723 -77.8794
rradius 29.0483
rwrist -12.5259
rhand -21.5498 10.7447
rfingers 7.12502
rthumb 4.84347 -19.18
lclavicle -9.34288e-015 -8.74653e-015
lhumerus -36.541 13.2333 79.2432
lradius 22.0496
lwrist -6.85195
lhand -17.6063 21.9122
lfingers 7.12502
lthumb 8.65025 51.715
rfemur -8.5063 15.4342 25.3845
rtibia 30.1653
rfoot -17.0945 20.1652
rtoes 10.4627
lfemur -10.5742 -6.8197 -8.77875
ltibia 27.2468
lfoot -8.11658 -25.0227
ltoes 26.6261
977
root 8.93433 17.9064 31.4778 8.36919 -59.7794 -9.33243
lowerback 3.29337 -0.946143 2.90506
upperback 0.59723 -1.15421 3.26105
thorax -1.22274 -0.599829 1.76989
lowerneck -13.698 -6.38136 -11.2007
upperneck 30.3516 -8.55188 5.35149
head 13.2026 -4.57989 2.61314
rclavicle -1.18277e-014 -7.95139e-016
rhumerus -27.2275 -12.8686 -77.5001
rradius 29.38
rwrist -12.3969
rhand -21.7972 10.9332
rfingers 7.12502
rthumb 4.60463 -18.9967
lclavicle -1.18277e-014 -7.95139e-016
lhumerus -36.0253 13.0859 79.0026
lradius 22.5042
lwrist -6.81234
lhand -18.2263 22.3224
lfingers 7.12502
lthumb 8.05191 52.149
rfemur -8.80849 14.7179 24.8692
rtibia 30.5757
rfoot -17.5896 17.7335
rtoes 9.77259
lfemur -10.5252 -6.37605 -9.58459
ltibia 27.0145
lfoot -7.50565 -25.2884
ltoes 27.4265
978
root 8.9538 17.9218 31.5131 7.21787 -60.3551 -7.88354
lowerback 3.22024 -0.923885 2.22348
upperback 0.639562 -1.15055 3.05606
thorax -1.12944 -0.593142 1.93797
lowerneck -13.7093 -6.4105 -11.346
upperneck 30.2628 -8.61106 5.54292
head 13.1922 -4.59688 2.70163
rclavicle 4.69132e-014 -1.82882e-014
rhumerus -27.4845 -12.7344 -77.3801
rradius 29.8884
rwrist -13.3122
rhand -22.7557 10.4913
rfingers 7.12502
rthumb 3.679 -19.4567
lclavicle 4.69132e-014 -1.82882e-014
lhumerus -35.4449 12.9431 78.7671
lradius 22.9359
lwrist -6.74393
lhand -18.5384 22.1955
lfingers 7.12502
lthumb 7.75072 52.0334
rfemur -8.98683 13.733 24.1713
rtibia 31.059
rfoot -18.679 15.1985
rtoes 7.98063
lfemur -10.343 -6.03215 -10.6014
ltibia 26.723
lfoot -6.51748 -25.1152
ltoes 29.5583
979
root 8.97384 17.9388 31.5397 6.63645 -61.0557 -7.04587
lowerback 3.05878 -0.906086 1.74899
upperback 0.732587 -1.15101 2.93196
thorax -0.936927 -0.590708 2.07167
lowerneck -13.6647 -6.39515 -11.5188
upperneck 30.0025 -8.64943 5.9238
head 13.1065 -4.58253 2.87322
rclavicle 5.14604e-014 1.19271e-015
rhumerus -27.5721 -11.9493 -77.6365
rradius 30.4985
rwrist -15.1817
rhand -23.8156 10.015
rfingers 7.12502
rthumb 2.65541 -19.9482
lclavicle 5.14604e-014 1.19271e-015
lhumerus -34.7609 12.7666 78.4615
lradius 23.3948
lwrist -6.37661
lhand -18.2718 21.8099
lfingers 7.12502
lthumb 8.00799 51.6382
rfemur -9.28789 12.6648 23.8064
rtibia 31.5851
rfoot -19.5113 12.8663
rtoes 6.61258
lfemur -10.1988 -5.58242 -11.2312
ltibia 26.3784
lfoot -6.27078 -24.9502
ltoes 29.1192
980
root 8.98844 17.9317 31.5532 6.75819 -61.8297 -7.04113
lowerback 2.98228 -0.834164 1.44231
upperback 0.822553 -1.0703 2.93076
thorax -0.798153 -0.549993 2.23698
lowerneck -13.7201 -6.38925 -11.3106
upperneck 29.7852 -8.68562 5.9696
head 13.0205 -4.56404 2.84699
rclavicle 1.26725e-014 -1.47101e-014
rhumerus -27.7295 -10.9972 -77.9894
rradius 31.2192
rwrist -17.1605
rhand -24.0476 9.85835
rfingers 7.12502
rthumb 2.43139 -20.1075
lclavicle 1.26725e-014 -1.47101e-014
lhumerus -34.0399 12.5347 78.1055
lradius 23.8667
lwrist -5.80008
lhand -18.3392 21.9121
lfingers 7.12502
lthumb 7.943 51.7429
rfemur -9.5468 11.6176 24.0583
rtibia 32.0557
rfoot -20.5693 9.70448
rtoes 1.62226
lfemur -10.0719 -4.86892 -11.3416
ltibia 26.0852
lfoot -6.63894 -25.1666
ltoes 28.1969
981
root 9.00952 17.9178 31.57 7.04848 -62.6518 -7.21312
lowerback 3.00822 -0.7465 1.26001
upperback 0.873816 -0.959927 2.92997
thorax -0.760268 -0.494912 2.33447
lowerneck -13.8696 -6.37002 -10.9759
upperneck 29.6413 -8.67079 5.8303
head 12.9631 -4.53091 2.73394
rclavicle -2.85008e-014 7.15625e-015
rhumerus -27.8329 -10.4865 -78.2572
rradius 31.6055
rwrist -17.8978
rhand -24.0479 9.50137
rfingers 7.12502
rthumb 2.4311 -20.4645
lclavicle -2.85008e-014 7.15625e-015
lhumerus -33.396 11.8612 77.8677
lradius 24.5442
lwrist -4.54785
lhand -18.9125 22.4103
lfingers 7.12502
lthumb 7.38962 52.2612
rfemur -9.73993 10.4503 24.4042
rtibia 32.3824
rfoot -21.3478 6.37048
rtoes -3.04369
lfemur -10.0536 -4.18025 -11.4254
ltibia 26.0296
lfoot -6.92503 -25.2221
ltoes 28.9467
982
root 9.04027 17.9235 31.5987 6.97037 -63.2941 -6.87119
lowerback 3.01704 -0.676703 1.16731
upperback 0.853455 -0.867873 2.82387
thorax -0.789311 -0.447888 2.27425
lowerneck -13.8234 -6.34552 -10.8221
upperneck 29.3291 -8.64919 5.82531
head 12.8122 -4.50042 2.70913
rclavicle 1.83379e-014 -1.11319e-014
rhumerus -27.9869 -10.7201 -78.0751
rradius 31.4235
rwrist -16.8177
rhand -23.6986 9.90232
rfingers 7.12502
rthumb 2.76841 -20.0595
lclavicle 1.83379e-014 -1.11319e-014
lhumerus -32.955 10.5552 77.8855
lradius 25.6178
lwrist -2.95171
lhand -19.2085 22.7049
lfingers 7.12502
lthumb 7.10388 52.5656
rfemur -9.93584 9.33821 24.4021
rtibia 32.6773
rfoot -21.7197 4.0476
rtoes -2.20409
lfemur -10.2082 -3.65833 -11.8102
ltibia 26.0605
lfoot -7.10882 -25.0749
ltoes 28.9891
983
root 9.06519 17.9222 31.6262 7.41534 -63.8996 -7.17453
lowerback 3.0173 -0.587973 1.31464
upperback 0.810697 -0.744239 2.8589
thorax -0.838503 -0.386419 2.22349
lowerneck -13.6203 -6.31046 -10.831
upperneck 29.0318 -8.61231 5.88549
head 12.6471 -4.47845 2.74349
rclavicle -7.97623e-015 9.54166e-015
rhumerus -28.3314 -9.88872 -78.2896
rradius 32.1394
rwrist -19.2299
rhand -25.2146 8.57122
rfingers 7.12502
rthumb 1.30428 -21.4045
lclavicle -7.97623e-015 9.54166e-015
lhumerus -32.8798 8.52337 78.2045
lradius 27.1508
lwrist -0.705765
lhand -19.1198 23.2509
lfingers 7.12502
lthumb 7.18954 53.1088
rfemur -10.1795 7.74547 24.8629
rtibia 33.0039
rfoot -22.2867 1.37571
rtoes -5.7194
lfemur -10.2812 -3.24982 -11.8161
ltibia 26.0588
lfoot -7.03505 -24.8612
ltoes 28.5991
